<?xml version="1.0" encoding="UTF-8" standalone="no"?>
<!-- Generator: Adobe Illustrator 23.0.1, SVG Export Plug-In . SVG Version: 6.00 Build 0)  -->

<svg
   xmlns:ns="&amp;ns_sfw;"
   xmlns:dc="http://purl.org/dc/elements/1.1/"
   xmlns:cc="http://creativecommons.org/ns#"
   xmlns:rdf="http://www.w3.org/1999/02/22-rdf-syntax-ns#"
   xmlns:svg="http://www.w3.org/2000/svg"
   xmlns="http://www.w3.org/2000/svg"
   xmlns:sodipodi="http://sodipodi.sourceforge.net/DTD/sodipodi-0.dtd"
   xmlns:inkscape="http://www.inkscape.org/namespaces/inkscape"
   version="1.1"
   id="Livello_1"
   x="0px"
   y="0px"
   viewBox="0 0 700.00002 700"
   enable-background="new 0 0 1919.95 1786"
   xml:space="preserve"
   sodipodi:docname="microsoft-powerpoint.svg"
   width="700"
   height="700"
   inkscape:export-filename="C:\Users\alex\sites\microsoft-powerpoint-logo-0.png"
   inkscape:export-xdpi="561.73712"
   inkscape:export-ydpi="561.73712"
   inkscape:version="0.92.1 r15371"><defs
     id="defs32" /><sodipodi:namedview
     pagecolor="#ffffff"
     bordercolor="#666666"
     borderopacity="1"
     objecttolerance="10"
     gridtolerance="10"
     guidetolerance="10"
     inkscape:pageopacity="0"
     inkscape:pageshadow="2"
     inkscape:window-width="1600"
     inkscape:window-height="838"
     id="namedview30"
     showgrid="false"
     inkscape:zoom="0.37374513"
     inkscape:cx="694.05142"
     inkscape:cy="581.70994"
     inkscape:window-x="-8"
     inkscape:window-y="-8"
     inkscape:window-maximized="1"
     inkscape:current-layer="Livello_1" /><metadata
     id="metadata2"><ns:sfw><ns:slices /><ns:sliceSourceBounds
         bottomLeftOrigin="true"
         height="1786"
         width="1919.95"
         x="-936.475"
         y="-869" /></ns:sfw><rdf:RDF><cc:Work
         rdf:about=""><dc:format>image/svg+xml</dc:format><dc:type
           rdf:resource="http://purl.org/dc/dcmitype/StillImage" /><dc:title></dc:title></cc:Work></rdf:RDF></metadata><path
     d="M 402.68208,373.41426 367.56069,115.85737 h -2.6225 C 237.22793,116.23021 133.79092,219.66724 133.41807,347.37749 V 350 Z"
     id="path4"
     inkscape:connector-curvature="0"
     style="fill:#ed6c47;stroke-width:0.26219779"
     inkscape:export-filename="C:\Users\alex\sites\microsoft-powerpoint-logo-4.png"
     inkscape:export-xdpi="76.280281"
     inkscape:export-ydpi="76.280281" /><path
     d="m 370.18319,115.85737 h -2.6225 V 350 L 484.632,396.82853 601.70332,350 v -2.62251 C 601.33047,219.66724 497.89344,116.23021 370.18319,115.85737 Z"
     id="path6"
     inkscape:connector-curvature="0"
     style="fill:#ff8f6b;stroke-width:0.26219779"
     inkscape:export-filename="C:\Users\alex\sites\microsoft-powerpoint-logo-4.png"
     inkscape:export-xdpi="76.280281"
     inkscape:export-ydpi="76.280281" /><path
     d="m 601.70332,350 v 2.57557 C 601.33678,480.3144 497.87509,583.77608 370.13626,584.14263 h -5.15113 C 237.24628,583.77608 133.78462,480.3144 133.41807,352.57557 V 350 Z"
     id="path8"
     inkscape:connector-curvature="0"
     style="fill:#d35230;stroke-width:0.26219779"
     inkscape:export-filename="C:\Users\alex\sites\microsoft-powerpoint-logo-4.png"
     inkscape:export-xdpi="76.280281"
     inkscape:export-ydpi="76.280281" /><path
     enable-background="new    "
     d="m 379.26783,230.93834 v 249.83018 c -0.0582,8.68112 -5.31894,16.47966 -13.34612,19.78493 -2.5559,1.08104 -5.3027,1.63847 -8.07806,1.639 H 188.67573 c -3.27799,-3.74629 -6.43879,-7.72671 -9.3657,-11.70714 C 149.48372,450.69706 133.37926,402.3019 133.41807,352.5753 v -5.15113 c -0.0684,-44.85208 13.03988,-88.73639 37.69697,-126.20288 2.57556,-3.98042 5.26808,-7.96085 8.19499,-11.70713 h 178.53362 c 11.79524,0.0894 21.33504,9.62921 21.42418,21.42418 z"
     id="path10"
     inkscape:connector-curvature="0"
     style="opacity:0.1;stroke-width:0.26219779"
     inkscape:export-filename="C:\Users\alex\sites\microsoft-powerpoint-logo-4.png"
     inkscape:export-xdpi="76.280281"
     inkscape:export-ydpi="76.280281" /><path
     enable-background="new    "
     d="m 367.56069,242.64573 v 249.83019 c 0,2.77511 -0.55795,5.52215 -1.639,8.07779 -3.30527,8.02718 -11.10408,13.28792 -19.78519,13.34613 H 199.32907 c -3.70405,-3.76044 -7.25814,-7.66588 -10.6536,-11.70713 -3.27799,-3.74628 -6.43879,-7.72671 -9.3657,-11.70714 -29.82632,-39.78825 -45.93077,-88.18367 -45.89196,-137.91 v -5.15114 c -0.0684,-44.85208 13.03988,-88.73639 37.69697,-126.20288 h 175.02174 c 11.79522,0.0891 21.33504,9.62895 21.42417,21.42418 z"
     id="path12"
     inkscape:connector-curvature="0"
     style="opacity:0.2;stroke-width:0.26219779"
     inkscape:export-filename="C:\Users\alex\sites\microsoft-powerpoint-logo-4.png"
     inkscape:export-xdpi="76.280281"
     inkscape:export-ydpi="76.280281" /><path
     enable-background="new    "
     d="m 367.56069,242.64573 v 226.41593 c -0.0891,11.79496 -9.62896,21.33477 -21.42392,21.42418 H 179.31003 C 149.48372,450.69758 133.37926,402.30216 133.41807,352.57583 v -5.15113 c -0.0684,-44.85209 13.03988,-88.7364 37.69697,-126.20289 h 175.02148 c 11.79523,0.0889 21.33504,9.62869 21.42417,21.42392 z"
     id="path14"
     inkscape:connector-curvature="0"
     style="opacity:0.2;stroke-width:0.26219779"
     inkscape:export-filename="C:\Users\alex\sites\microsoft-powerpoint-logo-4.png"
     inkscape:export-xdpi="76.280281"
     inkscape:export-ydpi="76.280281" /><path
     enable-background="new    "
     d="m 355.85355,242.64573 v 226.41593 c -0.0891,11.79496 -9.62894,21.33477 -21.4239,21.42418 H 179.31003 C 149.48372,450.69758 133.37926,402.30216 133.41807,352.57583 v -5.15113 c -0.0684,-44.85209 13.03988,-88.7364 37.69697,-126.20289 h 163.31435 c 11.79522,0.0889 21.33504,9.62869 21.42416,21.42392 z"
     id="path16"
     inkscape:connector-curvature="0"
     style="opacity:0.2;stroke-width:0.26219779"
     inkscape:export-filename="C:\Users\alex\sites\microsoft-powerpoint-logo-4.png"
     inkscape:export-xdpi="76.280281"
     inkscape:export-ydpi="76.280281" /><linearGradient
     id="SVGID_1_"
     gradientUnits="userSpaceOnUse"
     x1="170.6454"
     y1="1450.1008"
     x2="811.65472"
     y2="339.8992"
     gradientTransform="matrix(0.26219779,0,0,-0.26219779,98.296675,584.66702)"><stop
       offset="0"
       style="stop-color:#CA4C28"
       id="stop18" /><stop
       offset="0.5"
       style="stop-color:#C5401E"
       id="stop20" /><stop
       offset="1"
       style="stop-color:#B62F14"
       id="stop22" /></linearGradient><path
     d="m 119.75573,221.22155 h 214.63852 c 11.8516,0 21.45904,9.60771 21.45904,21.45906 v 214.63852 c 0,11.8516 -9.60771,21.45932 -21.45904,21.45932 H 119.75573 c -11.85134,0 -21.459055,-9.60772 -21.459055,-21.45906 V 242.68061 c 0,-11.85135 9.607715,-21.45906 21.459055,-21.45906 z"
     id="path25"
     inkscape:connector-curvature="0"
     style="fill:url(#SVGID_1_);stroke-width:0.26219779"
     inkscape:export-filename="C:\Users\alex\sites\microsoft-powerpoint-logo-4.png"
     inkscape:export-xdpi="76.280281"
     inkscape:export-ydpi="76.280281" /><path
     d="m 229.41655,278.45776 c 13.97224,-0.94287 27.82417,3.11569 39.07846,11.44965 9.38669,8.3801 14.40227,20.60848 13.60361,33.16619 0.1534,8.72961 -2.17282,17.32367 -6.70805,24.78398 -4.59162,7.3321 -11.20686,13.17885 -19.04761,16.83493 -8.96377,4.16895 -18.76393,6.22746 -28.64747,6.01744 h -27.14876 v 50.45761 h -27.8045 v -142.7098 z m -28.89316,70.45359 h 23.92949 c 7.58616,0.55717 15.11334,-1.68803 21.1549,-6.31005 4.99697,-4.7935 7.61606,-11.55322 7.15302,-18.46213 0,-15.72662 -9.13943,-23.58994 -27.41802,-23.58994 h -24.81911 v 48.36212 z"
     id="path27"
     inkscape:connector-curvature="0"
     style="fill:#ffffff;stroke-width:0.26219779"
     inkscape:export-filename="C:\Users\alex\sites\microsoft-powerpoint-logo-4.png"
     inkscape:export-xdpi="76.280281"
     inkscape:export-ydpi="76.280281" /></svg>